<svg width="82" height="82" viewBox="0 0 82 82" fill="none" xmlns="http://www.w3.org/2000/svg">
<path fill-rule="evenodd" clip-rule="evenodd" d="M25.5481 51.3903C21.7268 51.8425 20.1796 56.5568 22.9796 59.2165C25.2758 61.3978 29.1756 60.5391 30.3078 57.6032C31.4053 54.7576 29.5833 51.7362 26.5605 51.3884C26.0858 51.3339 26.025 51.3339 25.5481 51.3903ZM14.9379 60.8291C11.1953 61.4901 9.30494 65.7382 11.3036 68.9953C12.8346 71.4903 16.3519 72.2536 18.8076 70.6237C22.3263 68.2885 21.9432 63.0397 18.1235 61.2497C17.215 60.8239 15.9284 60.654 14.9379 60.8291Z" fill="#EE612E"/>
<path fill-rule="evenodd" clip-rule="evenodd" d="M4.68894 35.8966C1.36063 36.5062 -0.615013 39.8089 0.459877 42.9663C1.98244 47.4396 8.23932 47.8527 10.3416 43.6189C11.8729 40.5348 10.2053 36.8775 6.86833 36.0023C6.39574 35.8783 5.12533 35.8167 4.68894 35.8966ZM19.474 36.6923C15.6952 37.2876 14.1341 41.5998 16.7075 44.3345C19.7696 47.5881 25.2622 44.8275 24.4828 40.4265C24.068 38.0847 21.7248 36.3379 19.474 36.6923Z" fill="#EC245C"/>
<path fill-rule="evenodd" clip-rule="evenodd" d="M15.07 10.9748C11.4388 11.6276 9.46524 15.3536 11.0188 18.6233C12.6178 21.9888 17.1093 22.7222 19.7096 20.0425C22.586 17.0782 21.212 12.1658 17.205 11.0864C16.8276 10.9849 15.423 10.9113 15.07 10.9748ZM25.2295 22.056C21.4434 22.7732 20.2348 27.6828 23.2539 30.0819C25.8769 32.1664 29.8686 30.7425 30.5306 27.4859C31.1825 24.2807 28.4206 21.4516 25.2295 22.056Z" fill="#5CB444"/>
<path fill-rule="evenodd" clip-rule="evenodd" d="M74.9132 35.9513C71.4732 36.6974 69.651 40.4212 71.1821 43.5763C73.1678 47.6681 79.1892 47.5246 80.9527 43.3432C82.6376 39.3484 79.1168 35.0395 74.9132 35.9513ZM60.9057 36.7061C57.1873 37.3225 55.6981 41.783 58.3306 44.4195C61.1863 47.2795 66.0941 45.2533 66.0941 41.2143C66.0941 38.4693 63.5589 36.2664 60.9057 36.7061Z" fill="#1464A4"/>
<path fill-rule="evenodd" clip-rule="evenodd" d="M39.7669 0.693308C35.8558 1.43379 34.0949 6.0781 36.5183 9.26235C38.8972 12.3886 43.8298 11.9124 45.5832 8.38768C47.5562 4.42111 44.1158 -0.130132 39.7669 0.693308ZM39.8734 15.9786C36.2903 16.7471 35.0025 21.1193 37.6021 23.6909C40.0945 26.1567 44.4361 24.887 45.2095 21.4659C45.9361 18.252 43.0607 15.2953 39.8734 15.9786Z" fill="#34B4EC"/>
<path fill-rule="evenodd" clip-rule="evenodd" d="M64.658 11.0228C59.6584 12.0161 58.7289 18.8354 63.2851 21.0977C67.2573 23.0701 71.7428 19.71 70.9797 15.3336C70.4726 12.426 67.5673 10.4447 64.658 11.0228ZM54.8568 22.0086C49.5752 22.9526 49.6671 30.4159 54.968 31.0389C58.3292 31.4339 60.8919 28.1277 59.718 24.9113C59.0199 22.9986 56.785 21.6641 54.8568 22.0086Z" fill="#9B2464"/>
<path fill-rule="evenodd" clip-rule="evenodd" d="M39.5193 29.0181C31.0229 29.9524 26.0427 38.9409 29.7752 46.6052C34.2149 55.7213 47.3116 55.7213 51.7717 46.6052C55.9841 37.996 49.0027 27.9754 39.5193 29.0181Z" fill="#141414"/>
<path fill-rule="evenodd" clip-rule="evenodd" d="M39.7974 57.547C36.3807 58.276 35.0548 62.5596 37.4619 65.0936C39.6465 67.3933 43.4204 66.8559 44.8339 64.0436C46.5496 60.6305 43.5402 56.7485 39.7974 57.547ZM40.0505 71.1155C36.361 71.6162 34.3024 75.6427 36.032 78.9762C37.6767 82.1468 42.0386 82.7881 44.5932 80.2353C48.1897 76.6415 45.0959 70.4307 40.0505 71.1155Z" fill="#F0AE2B"/>
<path fill-rule="evenodd" clip-rule="evenodd" d="M54.8821 51.3939C51.4662 51.8072 49.7598 55.849 51.825 58.6347C53.9363 61.4824 58.507 60.8357 59.718 57.5175C60.9066 54.2606 58.3148 50.9784 54.8821 51.3939ZM64.79 60.8291C60.4119 61.6229 58.7855 67.0348 62.0167 70.0573C65.103 72.9443 70.2565 71.2408 70.9796 67.0951C71.6212 63.4158 68.4167 60.1718 64.79 60.8291Z" fill="#E82628"/>
</svg>
